:FULLY-SPECIFIED
:FORCE-ALL-JOINTS-BE-3DOF
:DEGREES
510
root 5.90826 16.3016 -5.21281 -167.652 77.7117 -172.736
lfemur -24.2854 -14.8642 -23.1276
ltibia 52.9933 -0 0
lfoot -26.6067 -1.05061 -0.0203743
ltoes 5.16377 -0 0
rfemur -57.8339 5.71996 4.53754
rtibia 57.8588 -0 0
rfoot 11.7275 8.47568 -0.00505104
rtoes -18.1929 0 0
lowerback 8.82164 0.401146 -0.777621
upperback 1.45425 0.670576 3.16123
thorax -3.48684 0.393482 3.64265
lowerneck -8.42729 -12.5671 -4.17289
upperneck 11.812 -16.7087 2.79542
head 5.52572 -8.13924 0.238844
lclavicle -0 0 0
lhumerus -46.8098 -34.7039 118.208
lradius 56.9814 -0 0
lwrist 6.39978 0 0
lhand 5.75084 -1.03614 0.0136124
lfingers 0 -0 0
lthumb 31.0845 26.3364 0.00848521
rclavicle -0 0 0
rhumerus -12.3293 42.3694 -71.8423
rradius 118.205 -0 0
rwrist -21.1265 0 0
rhand 24.1386 -13.3199 -0.0890834
rfingers 0 -0 0
rthumb 48.2584 -34.512 0.178747
511
root 5.96665 16.2767 -5.15654 -168.221 76.394 -173.277
lfemur -24.2286 -14.2552 -23.2651
ltibia 53.6618 -0 0
lfoot -26.8155 0.0674886 -0.0122229
ltoes 3.88105 -0 0
rfemur -57.5869 5.44059 4.09344
rtibia 56.3916 -0 0
rfoot 12.2264 8.35969 -0.00303054
rtoes -18.605 0 0
lowerback 9.02519 0.493846 -0.723997
upperback 1.56063 0.815319 3.37351
thorax -3.5014 0.4696 3.81713
lowerneck -8.29891 -12.8503 -4.40651
upperneck 12.028 -17.0844 2.91356
head 5.61366 -8.31933 0.27183
lclavicle -0 0 0
lhumerus -46.5496 -34.6863 118.302
lradius 57.0664 -0 0
lwrist 6.61237 0 0
lhand 5.21797 -1.32885 0.00816714
lfingers 0 -0 0
lthumb 30.577 26.1448 0.00509097
rclavicle -0 0 0
rhumerus -9.6157 41.0438 -69.669
rradius 120.607 -0 0
rwrist -26.812 0 0
rhand 27.0857 -13.6655 -0.0534022
rfingers 0 -0 0
rthumb 50.9979 -33.7659 0.10716
512
root 6.02504 16.2519 -5.10027 -168.693 75.0753 -173.721
lfemur -24.1735 -13.6461 -23.4015
ltibia 54.3304 0 0
lfoot -27.024 1.18555 0
ltoes 2.59832 0 0
rfemur -57.3378 5.16315 3.64834
rtibia 54.9244 0 0
rfoot 12.7254 8.24372 0
rtoes -19.017 0 0
lowerback 9.22882 0.586354 -0.670043
upperback 1.66754 0.959666 3.58606
thorax -3.51572 0.545763 3.9916
lowerneck -8.16919 -13.133 -4.64105
upperneck 12.2435 -17.4605 3.03047
head 5.70154 -8.49947 0.304551
lclavicle 5.60573e-14 -7.15625e-15 0
lhumerus -46.2895 -34.669 118.396
lradius 57.1515 0 0
lwrist 6.82495 0 0
lhand 4.68514 -1.62149 0
lfingers 7.12502 0 0
lthumb 30.0696 25.9532 0
rclavicle 5.60573e-14 -7.15625e-15 0
rhumerus -7.02353 39.6445 -67.6231
rradius 123.01 0 0
rwrist -32.4975 0 0
rhand 30.0326 -14.0088 0
rfingers 7.12502 0 0
rthumb 53.7363 -753.024 0
513
root 6.08289 16.2032 -5.0471 -169.159 73.6955 -174.315
lfemur -24.7078 -13.0867 -23.371
ltibia 55.5313 -0 0
lfoot -27.1731 1.74959 -0.00440539
ltoes 1.67093 -0 0
rfemur -56.8391 4.72803 3.06736
rtibia 53.58 -0 0
rfoot 12.8174 8.3722 0.000619001
rtoes -20.203 0 0
lowerback 9.32332 0.588759 -0.448847
upperback 1.78754 1.01038 3.81898
thorax -3.44747 0.575736 4.10475
lowerneck -8.04878 -13.3523 -4.80935
upperneck 12.3297 -17.7504 3.14266
head 5.74746 -8.63817 0.335602
lclavicle 0 0 0
lhumerus -46.0895 -34.222 118.199
lradius 57.4069 -0 0
lwrist 7.56507 0 0
lhand 3.29949 -2.03208 0.0298464
lfingers 0 -0 0
lthumb 28.7423 25.7327 0.0153486
rclavicle 0 0 0
rhumerus -4.79819 37.1534 -67.1743
rradius 124.376 -0 0
rwrist -34.6514 0 0
rhand 27.27 -13.6977 -0.0453214
rfingers 0 -0 0
rthumb 51.1727 -33.758 0.0991732
514
root 6.14075 16.1544 -4.99392 -169.543 72.3145 -174.828
lfemur -25.2407 -12.5271 -23.3459
ltibia 56.7322 -0 0
lfoot -27.3223 2.31364 -0.00734256
ltoes 0.743534 -0 0
rfemur -56.3362 4.29799 2.48295
rtibia 52.2357 -0 0
rfoot 12.9094 8.50068 0.00103167
rtoes -21.3889 0 0
lowerback 9.41783 0.5908 -0.227648
upperback 1.90775 1.0606 4.05201
thorax -3.37917 0.605575 4.21794
lowerneck -7.92759 -13.5713 -4.97827
upperneck 12.4154 -18.0405 3.25457
head 5.79333 -8.7769 0.366551
lclavicle 0 0 0
lhumerus -45.8924 -33.7745 118.004
lradius 57.6624 -0 0
lwrist 8.30519 0 0
lhand 1.91365 -2.44327 0.0497545
lfingers 0 -0 0
lthumb 27.415 25.5119 0.0255856
rclavicle 0 0 0
rhumerus -2.66574 34.6508 -66.8573
rradius 125.743 -0 0
rwrist -36.8052 0 0
rhand 24.5072 -13.3848 -0.0755951
rfingers 0 -0 0
rthumb 48.608 -34.4957 0.165408
515
root 6.1986 16.1057 -4.94075 -169.863 70.9326 -175.276
lfemur -25.7721 -11.9673 -23.3261
ltibia 57.9331 -0 0
lfoot -27.4715 2.8777 -0.00881123
ltoes -0.183859 0 0
rfemur -55.8293 3.87309 1.8951
rtibia 50.8913 -0 0
rfoot 13.0014 8.62916 0.00123801
rtoes -22.5749 0 0
lowerback 9.51235 0.592475 -0.0064449
upperback 2.02817 1.11034 4.28515
thorax -3.3108 0.635279 4.33116
lowerneck -7.80563 -13.7899 -5.14783
upperneck 12.5006 -18.3308 3.36622
head 5.83914 -8.91565 0.3974
lclavicle 0 0 0
lhumerus -45.6981 -33.3264 117.813
lradius 57.9178 -0 0
lwrist 9.04531 0 0
lhand 0.527713 -2.85482 0.0597118
lfingers 0 -0 0
lthumb 26.0876 25.291 0.0307056
rclavicle 0 0 0
rhumerus -0.610317 32.1404 -66.6595
rradius 127.109 -0 0
rwrist -38.9591 0 0
rhand 21.7443 -13.0707 -0.0907497
rfingers 0 -0 0
rthumb 46.0426 -35.2357 0.198562
516
root 6.25645 16.057 -4.88758 -170.13 69.55 -175.673
lfemur -26.3023 -11.4073 -23.3117
ltibia 59.1341 -0 0
lfoot -27.6206 3.44176 -0.00881123
ltoes -1.11125 0 0
rfemur -55.3182 3.45342 1.30378
rtibia 49.547 -0 0
rfoot 13.0935 8.75764 0.00123801
rtoes -23.7608 0 0
lowerback 9.60688 0.593786 0.21476
upperback 2.14879 1.15959 4.5184
thorax -3.24238 0.664847 4.44442
lowerneck -7.68289 -14.0082 -5.31803
upperneck 12.5854 -18.6212 3.4776
head 5.88489 -9.05443 0.428148
lclavicle 0 0 0
lhumerus -45.5066 -32.8778 117.624
lradius 58.1732 -0 0
lwrist 9.78544 0 0
lhand -0.858263 -3.2665 0.0597118
lfingers 0 -0 0
lthumb 24.7603 25.0699 0.0307056
rclavicle 0 0 0
rhumerus 1.38191 29.6258 -66.5705
rradius 128.475 -0 0
rwrist -41.1129 0 0
rhand 18.9814 -12.7564 -0.0907497
rfingers 0 -0 0
rthumb 43.4771 -35.9763 0.198562
517
root 6.3143 16.0083 -4.83441 -170.356 68.1669 -176.029
lfemur -26.8313 -10.8472 -23.3026
ltibia 60.335 -0 0
lfoot -27.7698 4.00582 -0.00734256
ltoes -2.03864 0 0
rfemur -54.8031 3.03906 0.708973
rtibia 48.2026 -0 0
rfoot 13.1855 8.88612 0.00103167
rtoes -24.9468 0 0
lowerback 9.70141 0.594731 0.435967
upperback 2.26961 1.20834 4.75175
thorax -3.1739 0.69428 4.55772
lowerneck -7.55936 -14.2261 -5.48887
upperneck 12.6698 -18.9118 3.58871
head 5.93058 -9.19323 0.458796
lclavicle 0 0 0
lhumerus -45.3178 -32.4287 117.438
lradius 58.4286 -0 0
lwrist 10.5256 0 0
lhand -2.2442 -3.67805 0.0497545
lfingers 0 -0 0
lthumb 23.4329 24.849 0.0255856
rclavicle 0 0 0
rhumerus 3.32307 27.1101 -66.5818
rradius 129.841 -0 0
rwrist -43.2668 0 0
rhand 16.2185 -12.4423 -0.0755951
rfingers 0 -0 0
rthumb 40.9117 -36.7163 0.165408
518
root 6.37216 15.9595 -4.78123 -170.547 66.7833 -176.35
lfemur -27.3593 -10.287 -23.2988
ltibia 61.5359 -0 0
lfoot -27.919 4.56987 -0.00440539
ltoes -2.96604 0 0
rfemur -54.2838 2.63007 0.110676
rtibia 46.8583 -0 0
rfoot 13.2775 9.0146 0.000619001
rtoes -26.1327 0 0
lowerback 9.79594 0.595312 0.657176
upperback 2.39063 1.2566 4.98521
thorax -3.10536 0.723578 4.67105
lowerneck -7.43504 -14.4437 -5.66036
upperneck 12.7537 -19.2025 3.69957
head 5.97621 -9.33205 0.489344
lclavicle 0 0 0
lhumerus -45.1317 -31.979 117.255
lradius 58.6841 -0 0
lwrist 11.2657 0 0
lhand -3.63004 -4.08924 0.0298464
lfingers 0 -0 0
lthumb 22.1056 24.6282 0.0153486
rclavicle 0 0 0
rhumerus 5.22391 24.596 -66.6865
rradius 131.208 -0 0
rwrist -45.4206 0 0
rhand 13.4557 -12.1294 -0.0453214
rfingers 0 -0 0
rthumb 38.347 -37.454 0.0991732
519
root 6.43001 15.9108 -4.72806 -170.709 65.3993 -176.644
lfemur -27.8863 -9.72688 -23.3002
ltibia 62.7368 0 0
lfoot -28.0681 5.13391 0
ltoes -3.89343 0 0
rfemur -53.7605 2.22653 -0.491125
rtibia 45.5139 0 0
rfoot 13.3695 9.14308 0
rtoes -27.3187 0 0
lowerback 9.89047 0.595528 0.878385
upperback 2.51185 1.30437 5.21878
thorax -3.03676 0.75274 4.78442
lowerneck -7.30993 -14.6609 -5.83251
upperneck 12.8371 -19.4934 3.81017
head 6.02179 -9.4709 0.519792
lclavicle -6.55989e-14 -2.54444e-14 0
lhumerus -44.9481 -31.5289 117.074
lradius 58.9395 0 0
lwrist 12.0058 0 0
lhand -5.01569 -4.49983 0
lfingers 7.12502 0 0
lthumb 20.7783 24.4077 0
rclavicle -6.55989e-14 -2.54444e-14 0
rhumerus 7.09407 22.0865 -66.8792
rradius 132.574 0 0
rwrist -47.5745 0 0
rhand 10.6931 -11.8183 0
rfingers 7.12502 0 0
rthumb 35.7834 -758.188 0
520
root 6.50032 15.8333 -4.67219 -171.37 64.3113 -177.048
lfemur -28.1487 -9.14946 -23.1945
ltibia 64.1539 -0 0
lfoot -28.3834 5.05633 0.00128069
ltoes -4.39067 0 0
rfemur -52.9421 2.26307 -1.12484
rtibia 45.1587 -0 0
rfoot 13.3817 9.35231 0.000133812
rtoes -28.6808 0 0
lowerback 10.2032 0.650986 1.02001
upperback 2.80536 1.44029 5.44149
thorax -2.91508 0.832853 4.92278
lowerneck -7.11969 -14.8445 -5.94952
upperneck 12.8835 -19.7505 3.98279
head 6.04922 -9.58864 0.569705
lclavicle -0 0 0
lhumerus -44.7827 -31.0042 116.702
lradius 59.1585 -0 0
lwrist 12.8705 0 0
lhand -6.56904 -4.86019 0.0293779
lfingers 0 -0 0
lthumb 19.2823 24.1642 0.0191107
rclavicle -0 0 0
rhumerus 8.14095 20.5213 -67.9781
rradius 133.16 -0 0
rwrist -47.6815 0 0
rhand 6.1938 -13.1293 0.315226
rfingers 0 -0 0
rthumb 31.4719 -39.9989 0.417247
521
root 6.57064 15.7557 -4.61633 -171.99 63.2215 -177.408
lfemur -28.4097 -8.57156 -23.0916
ltibia 65.571 -0 0
lfoot -28.6986 4.97875 0.00213451
ltoes -4.88791 0 0
rfemur -52.124 2.30865 -1.75799
rtibia 44.8036 -0 0
rfoot 13.3939 9.56154 0.000223022
rtoes -30.0429 0 0
lowerback 10.5161 0.705669 1.16194
upperback 3.09941 1.57506 5.6649
thorax -2.79321 0.912671 5.06132
lowerneck -6.92891 -15.0278 -6.06727
upperneck 12.9292 -20.0078 4.15546
head 6.07655 -9.70641 0.619579
lclavicle -0 0 0
lhumerus -44.6221 -30.4785 116.334
lradius 59.3775 -0 0
lwrist 13.7351 0 0
lhand -8.12254 -5.22122 0.0489758
lfingers 0 -0 0
lthumb 17.7863 23.9203 0.0318586
rclavicle -0 0 0
rhumerus 9.20922 18.9753 -69.0963
rradius 133.746 -0 0
rwrist -47.7884 0 0
rhand 1.68833 -14.461 0.526563
rfingers 0 -0 0
rthumb 27.1492 -41.8361 0.696985
522
root 6.64095 15.6782 -4.56046 -172.572 62.1301 -177.73
lfemur -28.6692 -7.99321 -22.9916
ltibia 66.9881 -0 0
lfoot -29.0139 4.90116 0.00256142
ltoes -5.38515 0 0
rfemur -51.3066 2.36326 -2.39044
rtibia 44.4484 -0 0
rfoot 13.4061 9.77077 0.000267627
rtoes -31.405 0 0
lowerback 10.8291 0.759577 1.30416
upperback 3.394 1.70869 5.88902
thorax -2.67115 0.992194 5.20002
lowerneck -6.73757 -15.2106 -6.18574
upperneck 12.9741 -20.2652 4.32821
head 6.10378 -9.8242 0.669413
lclavicle -0 0 0
lhumerus -44.4663 -29.952 115.969
lradius 59.5965 -0 0
lwrist 14.5998 0 0
lhand -9.67613 -5.58265 0.0587785
lfingers 0 -0 0
lthumb 16.2902 23.6762 0.0382348
rclavicle -0 0 0
rhumerus 10.2995 17.4494 -70.2348
rradius 134.332 -0 0
rwrist -47.8954 0 0
rhand -2.82096 -15.8052 0.63259
rfingers 0 -0 0
rthumb 22.8195 -43.6892 0.837329
